<svg width="20" height="20" viewBox="0 0 20 20" fill="none" xmlns="http://www.w3.org/2000/svg">
<path d="M12.9999 9.9999C12.9999 10.7956 12.6838 11.5586 12.1212 12.1212C11.5586 12.6838 10.7956 12.9999 9.9999 12.9999C9.20425 12.9999 8.44119 12.6838 7.87858 12.1212C7.31597 11.5586 6.9999 10.7956 6.9999 9.9999C6.9999 9.8289 7.0179 9.6619 7.0489 9.4999H5.9999V13.4969C5.9999 13.7749 6.2249 13.9999 6.5029 13.9999H13.4979C13.6311 13.9996 13.7588 13.9465 13.8529 13.8522C13.947 13.7579 13.9999 13.6301 13.9999 13.4969V9.4999H12.9509C12.9819 9.6619 12.9999 9.8289 12.9999 9.9999V9.9999ZM9.9999 11.9999C10.2626 11.9998 10.5227 11.948 10.7654 11.8474C11.0081 11.7468 11.2286 11.5994 11.4143 11.4136C11.6 11.2278 11.7473 11.0072 11.8478 10.7645C11.9483 10.5218 12 10.2616 11.9999 9.9989C11.9998 9.73619 11.948 9.47607 11.8474 9.23338C11.7468 8.9907 11.5994 8.7702 11.4136 8.58448C11.2278 8.39877 11.0072 8.25146 10.7645 8.15099C10.5218 8.05052 10.2616 7.99884 9.9989 7.9989C9.46834 7.99903 8.95955 8.20993 8.58448 8.58519C8.20941 8.96045 7.99877 9.46934 7.9989 9.9999C7.99903 10.5305 8.20993 11.0393 8.58519 11.4143C8.96045 11.7894 9.46934 12 9.9999 11.9999V11.9999ZM12.3999 7.8999H13.5989C13.6786 7.8999 13.755 7.86833 13.8114 7.8121C13.8678 7.75586 13.8996 7.67956 13.8999 7.5999V6.4009C13.8999 6.32107 13.8682 6.24451 13.8117 6.18806C13.7553 6.13161 13.6787 6.0999 13.5989 6.0999H12.3999C12.3201 6.0999 12.2435 6.13161 12.1871 6.18806C12.1306 6.24451 12.0989 6.32107 12.0989 6.4009V7.5999C12.0999 7.7649 12.2349 7.8999 12.3999 7.8999V7.8999ZM9.9999 0.399902C7.45382 0.399902 5.01203 1.41133 3.21168 3.21168C1.41133 5.01203 0.399902 7.45382 0.399902 9.9999C0.399902 12.546 1.41133 14.9878 3.21168 16.7881C5.01203 18.5885 7.45382 19.5999 9.9999 19.5999C11.2606 19.5999 12.5089 19.3516 13.6737 18.8691C14.8384 18.3867 15.8967 17.6796 16.7881 16.7881C17.6796 15.8967 18.3867 14.8384 18.8691 13.6737C19.3516 12.5089 19.5999 11.2606 19.5999 9.9999C19.5999 8.73921 19.3516 7.49087 18.8691 6.32614C18.3867 5.16142 17.6796 4.10312 16.7881 3.21168C15.8967 2.32023 14.8384 1.6131 13.6737 1.13066C12.5089 0.648214 11.2606 0.399902 9.9999 0.399902V0.399902ZM14.9999 13.8889C14.9999 14.4999 14.4999 14.9999 13.8889 14.9999H6.1109C5.4999 14.9999 4.9999 14.4999 4.9999 13.8889V6.1109C4.9999 5.4999 5.4999 4.9999 6.1109 4.9999H13.8889C14.4999 4.9999 14.9999 5.4999 14.9999 6.1109V13.8889V13.8889Z" fill="white"/>
</svg>
