<svg width="32" height="27" viewBox="0 0 32 27" fill="none" xmlns="http://www.w3.org/2000/svg">
<g clip-path="url(#clip0_703_3)">
<path d="M32 7.6H3C1.3 7.6 0 6.2 0 4.6V0H23.9C28.2 0.2 31.6 3.4 32 7.6Z" fill="white"/>
<path d="M11.5001 16.9H0.600098C1.0001 12.8 4.5001 9.49999 8.7001 9.29999C8.8001 9.29999 8.9001 9.29999 9.1001 9.29999H19.2001L11.5001 16.9Z" fill="#28AAE1"/>
<path d="M32 9.29999C31.6 13.6 28 16.9 23.6 16.9H14L15 15.9L21.6 9.29999H32Z" fill="white"/>
<path d="M19.1001 26.3H8.7001C4.5001 26.1 1.1001 22.9 0.600098 18.7H11.5001L15.8001 23L19.1001 26.3Z" fill="white"/>
<path d="M19.1001 9.29999L11.5001 16.9H0.600098C1.0001 12.8 4.5001 9.49999 8.7001 9.29999H19.1001Z" fill="white"/>
<path d="M15.5999 14.8C15.5999 14.9 15.4999 14.9 15.3999 15L15.5999 14.8Z" fill="#29AAAD"/>
</g>
<defs>
<clipPath id="clip0_703_3">
<rect width="32" height="26.3" fill="white"/>
</clipPath>
</defs>
</svg>
