<svg width="20" height="20" viewBox="0 0 20 20" fill="none" xmlns="http://www.w3.org/2000/svg">
<path d="M9.9999 0.399902C4.6979 0.399902 0.399902 4.6979 0.399902 9.9999C0.399902 15.3019 4.6979 19.5999 9.9999 19.5999C15.3019 19.5999 19.5999 15.3019 19.5999 9.9999C19.5999 4.6979 15.3019 0.399902 9.9999 0.399902ZM13.9049 8.2639C13.9089 8.3459 13.9099 8.4279 13.9099 8.5079C13.9099 11.0079 12.0089 13.8889 8.5309 13.8889C7.5032 13.8906 6.49687 13.5954 5.6329 13.0389C5.7799 13.0569 5.9309 13.0639 6.0839 13.0639C6.9699 13.0639 7.7849 12.7629 8.4319 12.2549C8.03762 12.2472 7.65557 12.1166 7.33901 11.8814C7.02245 11.6462 6.78715 11.3182 6.6659 10.9429C6.94906 10.9967 7.24075 10.9855 7.5189 10.9099C7.09095 10.8234 6.7061 10.5915 6.42961 10.2536C6.15312 9.91565 6.00201 9.49252 6.0019 9.0559V9.0329C6.2569 9.1739 6.5489 9.2599 6.8589 9.2699C6.4577 9.00283 6.17369 8.59257 6.06495 8.12303C5.95621 7.6535 6.03095 7.16015 6.2739 6.7439C6.74886 7.3279 7.34116 7.80565 8.01247 8.14621C8.68378 8.48678 9.41913 8.68256 10.1709 8.7209C10.0753 8.31521 10.1165 7.88931 10.2879 7.50941C10.4594 7.12951 10.7515 6.81689 11.119 6.62017C11.4864 6.42344 11.9086 6.35363 12.3198 6.42157C12.731 6.48952 13.1083 6.69143 13.3929 6.9959C13.8161 6.91218 14.2219 6.75696 14.5929 6.5369C14.4519 6.97504 14.1566 7.34708 13.7619 7.5839C14.1367 7.53875 14.5028 7.43798 14.8479 7.2849C14.5944 7.6648 14.275 7.99634 13.9049 8.2639V8.2639Z" fill="white"/>
</svg>
